<?xml version="1.0"?>
<!DOCTYPE svg PUBLIC "-//W3C//DTD SVG 1.0//EN" "http://www.w3.org/TR/2001/REC-SVG-20010904/DTD/svg10.dtd">
<svg xmlns="http://www.w3.org/2000/svg" xmlns:xlink="http://www.w3.org/1999/xlink" xmlns:jfreesvg="http://www.jfree.org/jfreesvg/svg" width="488" height="328" text-rendering="auto" shape-rendering="auto">
<defs></defs>
<g style="fill: rgb(255,0,0); fill-opacity: 1.0; stroke: none" transform="matrix(1,0,0,1,0,0)" ><path d="M 4 4 L 84 4 L 44 44 M 4 4"/></g><g style="fill: rgb(255,0,0); fill-opacity: 1.0; stroke: none" transform="matrix(1,0,0,1,0,0)" ><path d="M 84 4 L 84 84 L 44 44 M 84 4"/></g><g style="fill: rgb(0,255,0); fill-opacity: 1.0; stroke: none" transform="matrix(1,0,0,1,0,0)" ><path d="M 4 84 L 84 84 L 44 44 M 4 84"/></g><g style="fill: rgb(0,255,0); fill-opacity: 1.0; stroke: none" transform="matrix(1,0,0,1,0,0)" ><path d="M 4 4 L 4 84 L 44 44 M 4 4"/></g><line x1="4" y1="4" x2="83" y2="4" style="stroke-width: 1.0;stroke: rgb(0,0,0);stroke-opacity: 1.0;" transform="matrix(1,0,0,1,0,0)" /><line x1="84" y1="4" x2="84" y2="83" style="stroke-width: 1.0;stroke: rgb(0,0,0);stroke-opacity: 1.0;" transform="matrix(1,0,0,1,0,0)" /><line x1="84" y1="84" x2="5" y2="84" style="stroke-width: 1.0;stroke: rgb(0,0,0);stroke-opacity: 1.0;" transform="matrix(1,0,0,1,0,0)" /><line x1="4" y1="84" x2="4" y2="5" style="stroke-width: 1.0;stroke: rgb(0,0,0);stroke-opacity: 1.0;" transform="matrix(1,0,0,1,0,0)" /><g style="fill: rgb(0,255,0); fill-opacity: 1.0; stroke: none" transform="matrix(1,0,0,1,0,0)" ><path d="M 4 84 L 84 84 L 44 124 M 4 84"/></g><g style="fill: rgb(0,0,255); fill-opacity: 1.0; stroke: none" transform="matrix(1,0,0,1,0,0)" ><path d="M 84 84 L 84 164 L 44 124 M 84 84"/></g><g style="fill: rgb(255,0,0); fill-opacity: 1.0; stroke: none" transform="matrix(1,0,0,1,0,0)" ><path d="M 4 164 L 84 164 L 44 124 M 4 164"/></g><g style="fill: rgb(0,0,255); fill-opacity: 1.0; stroke: none" transform="matrix(1,0,0,1,0,0)" ><path d="M 4 84 L 4 164 L 44 124 M 4 84"/></g><line x1="4" y1="84" x2="83" y2="84" style="stroke-width: 1.0;stroke: rgb(0,0,0);stroke-opacity: 1.0;" transform="matrix(1,0,0,1,0,0)" /><line x1="84" y1="84" x2="84" y2="163" style="stroke-width: 1.0;stroke: rgb(0,0,0);stroke-opacity: 1.0;" transform="matrix(1,0,0,1,0,0)" /><line x1="84" y1="164" x2="5" y2="164" style="stroke-width: 1.0;stroke: rgb(0,0,0);stroke-opacity: 1.0;" transform="matrix(1,0,0,1,0,0)" /><line x1="4" y1="164" x2="4" y2="85" style="stroke-width: 1.0;stroke: rgb(0,0,0);stroke-opacity: 1.0;" transform="matrix(1,0,0,1,0,0)" /><g style="fill: rgb(255,0,0); fill-opacity: 1.0; stroke: none" transform="matrix(1,0,0,1,0,0)" ><path d="M 4 164 L 84 164 L 44 204 M 4 164"/></g><g style="fill: rgb(0,255,0); fill-opacity: 1.0; stroke: none" transform="matrix(1,0,0,1,0,0)" ><path d="M 84 164 L 84 244 L 44 204 M 84 164"/></g><g style="fill: rgb(255,0,0); fill-opacity: 1.0; stroke: none" transform="matrix(1,0,0,1,0,0)" ><path d="M 4 244 L 84 244 L 44 204 M 4 244"/></g><g style="fill: rgb(255,0,0); fill-opacity: 1.0; stroke: none" transform="matrix(1,0,0,1,0,0)" ><path d="M 4 164 L 4 244 L 44 204 M 4 164"/></g><line x1="4" y1="164" x2="83" y2="164" style="stroke-width: 1.0;stroke: rgb(0,0,0);stroke-opacity: 1.0;" transform="matrix(1,0,0,1,0,0)" /><line x1="84" y1="164" x2="84" y2="243" style="stroke-width: 1.0;stroke: rgb(0,0,0);stroke-opacity: 1.0;" transform="matrix(1,0,0,1,0,0)" /><line x1="84" y1="244" x2="5" y2="244" style="stroke-width: 1.0;stroke: rgb(0,0,0);stroke-opacity: 1.0;" transform="matrix(1,0,0,1,0,0)" /><line x1="4" y1="244" x2="4" y2="165" style="stroke-width: 1.0;stroke: rgb(0,0,0);stroke-opacity: 1.0;" transform="matrix(1,0,0,1,0,0)" /><g style="fill: rgb(255,0,0); fill-opacity: 1.0; stroke: none" transform="matrix(1,0,0,1,0,0)" ><path d="M 4 244 L 84 244 L 44 284 M 4 244"/></g><g style="fill: rgb(0,0,255); fill-opacity: 1.0; stroke: none" transform="matrix(1,0,0,1,0,0)" ><path d="M 84 244 L 84 324 L 44 284 M 84 244"/></g><g style="fill: rgb(255,0,0); fill-opacity: 1.0; stroke: none" transform="matrix(1,0,0,1,0,0)" ><path d="M 4 324 L 84 324 L 44 284 M 4 324"/></g><g style="fill: rgb(0,0,255); fill-opacity: 1.0; stroke: none" transform="matrix(1,0,0,1,0,0)" ><path d="M 4 244 L 4 324 L 44 284 M 4 244"/></g><line x1="4" y1="244" x2="83" y2="244" style="stroke-width: 1.0;stroke: rgb(0,0,0);stroke-opacity: 1.0;" transform="matrix(1,0,0,1,0,0)" /><line x1="84" y1="244" x2="84" y2="323" style="stroke-width: 1.0;stroke: rgb(0,0,0);stroke-opacity: 1.0;" transform="matrix(1,0,0,1,0,0)" /><line x1="84" y1="324" x2="5" y2="324" style="stroke-width: 1.0;stroke: rgb(0,0,0);stroke-opacity: 1.0;" transform="matrix(1,0,0,1,0,0)" /><line x1="4" y1="324" x2="4" y2="245" style="stroke-width: 1.0;stroke: rgb(0,0,0);stroke-opacity: 1.0;" transform="matrix(1,0,0,1,0,0)" /><g style="fill: rgb(0,255,0); fill-opacity: 1.0; stroke: none" transform="matrix(1,0,0,1,0,0)" ><path d="M 84 4 L 164 4 L 124 44 M 84 4"/></g><g style="fill: rgb(255,0,0); fill-opacity: 1.0; stroke: none" transform="matrix(1,0,0,1,0,0)" ><path d="M 164 4 L 164 84 L 124 44 M 164 4"/></g><g style="fill: rgb(0,255,0); fill-opacity: 1.0; stroke: none" transform="matrix(1,0,0,1,0,0)" ><path d="M 84 84 L 164 84 L 124 44 M 84 84"/></g><g style="fill: rgb(255,0,0); fill-opacity: 1.0; stroke: none" transform="matrix(1,0,0,1,0,0)" ><path d="M 84 4 L 84 84 L 124 44 M 84 4"/></g><line x1="84" y1="4" x2="163" y2="4" style="stroke-width: 1.0;stroke: rgb(0,0,0);stroke-opacity: 1.0;" transform="matrix(1,0,0,1,0,0)" /><line x1="164" y1="4" x2="164" y2="83" style="stroke-width: 1.0;stroke: rgb(0,0,0);stroke-opacity: 1.0;" transform="matrix(1,0,0,1,0,0)" /><line x1="164" y1="84" x2="85" y2="84" style="stroke-width: 1.0;stroke: rgb(0,0,0);stroke-opacity: 1.0;" transform="matrix(1,0,0,1,0,0)" /><line x1="84" y1="84" x2="84" y2="5" style="stroke-width: 1.0;stroke: rgb(0,0,0);stroke-opacity: 1.0;" transform="matrix(1,0,0,1,0,0)" /><g style="fill: rgb(0,255,0); fill-opacity: 1.0; stroke: none" transform="matrix(1,0,0,1,0,0)" ><path d="M 84 84 L 164 84 L 124 124 M 84 84"/></g><g style="fill: rgb(0,0,255); fill-opacity: 1.0; stroke: none" transform="matrix(1,0,0,1,0,0)" ><path d="M 164 84 L 164 164 L 124 124 M 164 84"/></g><g style="fill: rgb(0,255,0); fill-opacity: 1.0; stroke: none" transform="matrix(1,0,0,1,0,0)" ><path d="M 84 164 L 164 164 L 124 124 M 84 164"/></g><g style="fill: rgb(0,0,255); fill-opacity: 1.0; stroke: none" transform="matrix(1,0,0,1,0,0)" ><path d="M 84 84 L 84 164 L 124 124 M 84 84"/></g><line x1="84" y1="84" x2="163" y2="84" style="stroke-width: 1.0;stroke: rgb(0,0,0);stroke-opacity: 1.0;" transform="matrix(1,0,0,1,0,0)" /><line x1="164" y1="84" x2="164" y2="163" style="stroke-width: 1.0;stroke: rgb(0,0,0);stroke-opacity: 1.0;" transform="matrix(1,0,0,1,0,0)" /><line x1="164" y1="164" x2="85" y2="164" style="stroke-width: 1.0;stroke: rgb(0,0,0);stroke-opacity: 1.0;" transform="matrix(1,0,0,1,0,0)" /><line x1="84" y1="164" x2="84" y2="85" style="stroke-width: 1.0;stroke: rgb(0,0,0);stroke-opacity: 1.0;" transform="matrix(1,0,0,1,0,0)" /><g style="fill: rgb(0,255,0); fill-opacity: 1.0; stroke: none" transform="matrix(1,0,0,1,0,0)" ><path d="M 84 164 L 164 164 L 124 204 M 84 164"/></g><g style="fill: rgb(0,0,255); fill-opacity: 1.0; stroke: none" transform="matrix(1,0,0,1,0,0)" ><path d="M 164 164 L 164 244 L 124 204 M 164 164"/></g><g style="fill: rgb(255,0,0); fill-opacity: 1.0; stroke: none" transform="matrix(1,0,0,1,0,0)" ><path d="M 84 244 L 164 244 L 124 204 M 84 244"/></g><g style="fill: rgb(0,255,0); fill-opacity: 1.0; stroke: none" transform="matrix(1,0,0,1,0,0)" ><path d="M 84 164 L 84 244 L 124 204 M 84 164"/></g><line x1="84" y1="164" x2="163" y2="164" style="stroke-width: 1.0;stroke: rgb(0,0,0);stroke-opacity: 1.0;" transform="matrix(1,0,0,1,0,0)" /><line x1="164" y1="164" x2="164" y2="243" style="stroke-width: 1.0;stroke: rgb(0,0,0);stroke-opacity: 1.0;" transform="matrix(1,0,0,1,0,0)" /><line x1="164" y1="244" x2="85" y2="244" style="stroke-width: 1.0;stroke: rgb(0,0,0);stroke-opacity: 1.0;" transform="matrix(1,0,0,1,0,0)" /><line x1="84" y1="244" x2="84" y2="165" style="stroke-width: 1.0;stroke: rgb(0,0,0);stroke-opacity: 1.0;" transform="matrix(1,0,0,1,0,0)" /><g style="fill: rgb(255,0,0); fill-opacity: 1.0; stroke: none" transform="matrix(1,0,0,1,0,0)" ><path d="M 84 244 L 164 244 L 124 284 M 84 244"/></g><g style="fill: rgb(255,0,0); fill-opacity: 1.0; stroke: none" transform="matrix(1,0,0,1,0,0)" ><path d="M 164 244 L 164 324 L 124 284 M 164 244"/></g><g style="fill: rgb(0,255,0); fill-opacity: 1.0; stroke: none" transform="matrix(1,0,0,1,0,0)" ><path d="M 84 324 L 164 324 L 124 284 M 84 324"/></g><g style="fill: rgb(0,0,255); fill-opacity: 1.0; stroke: none" transform="matrix(1,0,0,1,0,0)" ><path d="M 84 244 L 84 324 L 124 284 M 84 244"/></g><line x1="84" y1="244" x2="163" y2="244" style="stroke-width: 1.0;stroke: rgb(0,0,0);stroke-opacity: 1.0;" transform="matrix(1,0,0,1,0,0)" /><line x1="164" y1="244" x2="164" y2="323" style="stroke-width: 1.0;stroke: rgb(0,0,0);stroke-opacity: 1.0;" transform="matrix(1,0,0,1,0,0)" /><line x1="164" y1="324" x2="85" y2="324" style="stroke-width: 1.0;stroke: rgb(0,0,0);stroke-opacity: 1.0;" transform="matrix(1,0,0,1,0,0)" /><line x1="84" y1="324" x2="84" y2="245" style="stroke-width: 1.0;stroke: rgb(0,0,0);stroke-opacity: 1.0;" transform="matrix(1,0,0,1,0,0)" /><g style="fill: rgb(0,255,0); fill-opacity: 1.0; stroke: none" transform="matrix(1,0,0,1,0,0)" ><path d="M 164 4 L 244 4 L 204 44 M 164 4"/></g><g style="fill: rgb(255,0,0); fill-opacity: 1.0; stroke: none" transform="matrix(1,0,0,1,0,0)" ><path d="M 244 4 L 244 84 L 204 44 M 244 4"/></g><g style="fill: rgb(0,0,255); fill-opacity: 1.0; stroke: none" transform="matrix(1,0,0,1,0,0)" ><path d="M 164 84 L 244 84 L 204 44 M 164 84"/></g><g style="fill: rgb(255,0,0); fill-opacity: 1.0; stroke: none" transform="matrix(1,0,0,1,0,0)" ><path d="M 164 4 L 164 84 L 204 44 M 164 4"/></g><line x1="164" y1="4" x2="243" y2="4" style="stroke-width: 1.0;stroke: rgb(0,0,0);stroke-opacity: 1.0;" transform="matrix(1,0,0,1,0,0)" /><line x1="244" y1="4" x2="244" y2="83" style="stroke-width: 1.0;stroke: rgb(0,0,0);stroke-opacity: 1.0;" transform="matrix(1,0,0,1,0,0)" /><line x1="244" y1="84" x2="165" y2="84" style="stroke-width: 1.0;stroke: rgb(0,0,0);stroke-opacity: 1.0;" transform="matrix(1,0,0,1,0,0)" /><line x1="164" y1="84" x2="164" y2="5" style="stroke-width: 1.0;stroke: rgb(0,0,0);stroke-opacity: 1.0;" transform="matrix(1,0,0,1,0,0)" /><g style="fill: rgb(0,0,255); fill-opacity: 1.0; stroke: none" transform="matrix(1,0,0,1,0,0)" ><path d="M 164 84 L 244 84 L 204 124 M 164 84"/></g><g style="fill: rgb(0,0,255); fill-opacity: 1.0; stroke: none" transform="matrix(1,0,0,1,0,0)" ><path d="M 244 84 L 244 164 L 204 124 M 244 84"/></g><g style="fill: rgb(0,0,255); fill-opacity: 1.0; stroke: none" transform="matrix(1,0,0,1,0,0)" ><path d="M 164 164 L 244 164 L 204 124 M 164 164"/></g><g style="fill: rgb(0,0,255); fill-opacity: 1.0; stroke: none" transform="matrix(1,0,0,1,0,0)" ><path d="M 164 84 L 164 164 L 204 124 M 164 84"/></g><line x1="164" y1="84" x2="243" y2="84" style="stroke-width: 1.0;stroke: rgb(0,0,0);stroke-opacity: 1.0;" transform="matrix(1,0,0,1,0,0)" /><line x1="244" y1="84" x2="244" y2="163" style="stroke-width: 1.0;stroke: rgb(0,0,0);stroke-opacity: 1.0;" transform="matrix(1,0,0,1,0,0)" /><line x1="244" y1="164" x2="165" y2="164" style="stroke-width: 1.0;stroke: rgb(0,0,0);stroke-opacity: 1.0;" transform="matrix(1,0,0,1,0,0)" /><line x1="164" y1="164" x2="164" y2="85" style="stroke-width: 1.0;stroke: rgb(0,0,0);stroke-opacity: 1.0;" transform="matrix(1,0,0,1,0,0)" /><g style="fill: rgb(0,0,255); fill-opacity: 1.0; stroke: none" transform="matrix(1,0,0,1,0,0)" ><path d="M 164 164 L 244 164 L 204 204 M 164 164"/></g><g style="fill: rgb(255,0,0); fill-opacity: 1.0; stroke: none" transform="matrix(1,0,0,1,0,0)" ><path d="M 244 164 L 244 244 L 204 204 M 244 164"/></g><g style="fill: rgb(0,0,255); fill-opacity: 1.0; stroke: none" transform="matrix(1,0,0,1,0,0)" ><path d="M 164 244 L 244 244 L 204 204 M 164 244"/></g><g style="fill: rgb(0,0,255); fill-opacity: 1.0; stroke: none" transform="matrix(1,0,0,1,0,0)" ><path d="M 164 164 L 164 244 L 204 204 M 164 164"/></g><line x1="164" y1="164" x2="243" y2="164" style="stroke-width: 1.0;stroke: rgb(0,0,0);stroke-opacity: 1.0;" transform="matrix(1,0,0,1,0,0)" /><line x1="244" y1="164" x2="244" y2="243" style="stroke-width: 1.0;stroke: rgb(0,0,0);stroke-opacity: 1.0;" transform="matrix(1,0,0,1,0,0)" /><line x1="244" y1="244" x2="165" y2="244" style="stroke-width: 1.0;stroke: rgb(0,0,0);stroke-opacity: 1.0;" transform="matrix(1,0,0,1,0,0)" /><line x1="164" y1="244" x2="164" y2="165" style="stroke-width: 1.0;stroke: rgb(0,0,0);stroke-opacity: 1.0;" transform="matrix(1,0,0,1,0,0)" /><g style="fill: rgb(0,0,255); fill-opacity: 1.0; stroke: none" transform="matrix(1,0,0,1,0,0)" ><path d="M 164 244 L 244 244 L 204 284 M 164 244"/></g><g style="fill: rgb(0,0,255); fill-opacity: 1.0; stroke: none" transform="matrix(1,0,0,1,0,0)" ><path d="M 244 244 L 244 324 L 204 284 M 244 244"/></g><g style="fill: rgb(0,255,0); fill-opacity: 1.0; stroke: none" transform="matrix(1,0,0,1,0,0)" ><path d="M 164 324 L 244 324 L 204 284 M 164 324"/></g><g style="fill: rgb(255,0,0); fill-opacity: 1.0; stroke: none" transform="matrix(1,0,0,1,0,0)" ><path d="M 164 244 L 164 324 L 204 284 M 164 244"/></g><line x1="164" y1="244" x2="243" y2="244" style="stroke-width: 1.0;stroke: rgb(0,0,0);stroke-opacity: 1.0;" transform="matrix(1,0,0,1,0,0)" /><line x1="244" y1="244" x2="244" y2="323" style="stroke-width: 1.0;stroke: rgb(0,0,0);stroke-opacity: 1.0;" transform="matrix(1,0,0,1,0,0)" /><line x1="244" y1="324" x2="165" y2="324" style="stroke-width: 1.0;stroke: rgb(0,0,0);stroke-opacity: 1.0;" transform="matrix(1,0,0,1,0,0)" /><line x1="164" y1="324" x2="164" y2="245" style="stroke-width: 1.0;stroke: rgb(0,0,0);stroke-opacity: 1.0;" transform="matrix(1,0,0,1,0,0)" /><g style="fill: rgb(0,0,255); fill-opacity: 1.0; stroke: none" transform="matrix(1,0,0,1,0,0)" ><path d="M 244 4 L 324 4 L 284 44 M 244 4"/></g><g style="fill: rgb(0,255,0); fill-opacity: 1.0; stroke: none" transform="matrix(1,0,0,1,0,0)" ><path d="M 324 4 L 324 84 L 284 44 M 324 4"/></g><g style="fill: rgb(255,0,0); fill-opacity: 1.0; stroke: none" transform="matrix(1,0,0,1,0,0)" ><path d="M 244 84 L 324 84 L 284 44 M 244 84"/></g><g style="fill: rgb(255,0,0); fill-opacity: 1.0; stroke: none" transform="matrix(1,0,0,1,0,0)" ><path d="M 244 4 L 244 84 L 284 44 M 244 4"/></g><line x1="244" y1="4" x2="323" y2="4" style="stroke-width: 1.0;stroke: rgb(0,0,0);stroke-opacity: 1.0;" transform="matrix(1,0,0,1,0,0)" /><line x1="324" y1="4" x2="324" y2="83" style="stroke-width: 1.0;stroke: rgb(0,0,0);stroke-opacity: 1.0;" transform="matrix(1,0,0,1,0,0)" /><line x1="324" y1="84" x2="245" y2="84" style="stroke-width: 1.0;stroke: rgb(0,0,0);stroke-opacity: 1.0;" transform="matrix(1,0,0,1,0,0)" /><line x1="244" y1="84" x2="244" y2="5" style="stroke-width: 1.0;stroke: rgb(0,0,0);stroke-opacity: 1.0;" transform="matrix(1,0,0,1,0,0)" /><g style="fill: rgb(255,0,0); fill-opacity: 1.0; stroke: none" transform="matrix(1,0,0,1,0,0)" ><path d="M 244 84 L 324 84 L 284 124 M 244 84"/></g><g style="fill: rgb(255,0,0); fill-opacity: 1.0; stroke: none" transform="matrix(1,0,0,1,0,0)" ><path d="M 324 84 L 324 164 L 284 124 M 324 84"/></g><g style="fill: rgb(255,0,0); fill-opacity: 1.0; stroke: none" transform="matrix(1,0,0,1,0,0)" ><path d="M 244 164 L 324 164 L 284 124 M 244 164"/></g><g style="fill: rgb(0,0,255); fill-opacity: 1.0; stroke: none" transform="matrix(1,0,0,1,0,0)" ><path d="M 244 84 L 244 164 L 284 124 M 244 84"/></g><line x1="244" y1="84" x2="323" y2="84" style="stroke-width: 1.0;stroke: rgb(0,0,0);stroke-opacity: 1.0;" transform="matrix(1,0,0,1,0,0)" /><line x1="324" y1="84" x2="324" y2="163" style="stroke-width: 1.0;stroke: rgb(0,0,0);stroke-opacity: 1.0;" transform="matrix(1,0,0,1,0,0)" /><line x1="324" y1="164" x2="245" y2="164" style="stroke-width: 1.0;stroke: rgb(0,0,0);stroke-opacity: 1.0;" transform="matrix(1,0,0,1,0,0)" /><line x1="244" y1="164" x2="244" y2="85" style="stroke-width: 1.0;stroke: rgb(0,0,0);stroke-opacity: 1.0;" transform="matrix(1,0,0,1,0,0)" /><g style="fill: rgb(255,0,0); fill-opacity: 1.0; stroke: none" transform="matrix(1,0,0,1,0,0)" ><path d="M 244 164 L 324 164 L 284 204 M 244 164"/></g><g style="fill: rgb(255,0,0); fill-opacity: 1.0; stroke: none" transform="matrix(1,0,0,1,0,0)" ><path d="M 324 164 L 324 244 L 284 204 M 324 164"/></g><g style="fill: rgb(255,0,0); fill-opacity: 1.0; stroke: none" transform="matrix(1,0,0,1,0,0)" ><path d="M 244 244 L 324 244 L 284 204 M 244 244"/></g><g style="fill: rgb(255,0,0); fill-opacity: 1.0; stroke: none" transform="matrix(1,0,0,1,0,0)" ><path d="M 244 164 L 244 244 L 284 204 M 244 164"/></g><line x1="244" y1="164" x2="323" y2="164" style="stroke-width: 1.0;stroke: rgb(0,0,0);stroke-opacity: 1.0;" transform="matrix(1,0,0,1,0,0)" /><line x1="324" y1="164" x2="324" y2="243" style="stroke-width: 1.0;stroke: rgb(0,0,0);stroke-opacity: 1.0;" transform="matrix(1,0,0,1,0,0)" /><line x1="324" y1="244" x2="245" y2="244" style="stroke-width: 1.0;stroke: rgb(0,0,0);stroke-opacity: 1.0;" transform="matrix(1,0,0,1,0,0)" /><line x1="244" y1="244" x2="244" y2="165" style="stroke-width: 1.0;stroke: rgb(0,0,0);stroke-opacity: 1.0;" transform="matrix(1,0,0,1,0,0)" /><g style="fill: rgb(255,0,0); fill-opacity: 1.0; stroke: none" transform="matrix(1,0,0,1,0,0)" ><path d="M 244 244 L 324 244 L 284 284 M 244 244"/></g><g style="fill: rgb(0,255,0); fill-opacity: 1.0; stroke: none" transform="matrix(1,0,0,1,0,0)" ><path d="M 324 244 L 324 324 L 284 284 M 324 244"/></g><g style="fill: rgb(0,0,255); fill-opacity: 1.0; stroke: none" transform="matrix(1,0,0,1,0,0)" ><path d="M 244 324 L 324 324 L 284 284 M 244 324"/></g><g style="fill: rgb(0,0,255); fill-opacity: 1.0; stroke: none" transform="matrix(1,0,0,1,0,0)" ><path d="M 244 244 L 244 324 L 284 284 M 244 244"/></g><line x1="244" y1="244" x2="323" y2="244" style="stroke-width: 1.0;stroke: rgb(0,0,0);stroke-opacity: 1.0;" transform="matrix(1,0,0,1,0,0)" /><line x1="324" y1="244" x2="324" y2="323" style="stroke-width: 1.0;stroke: rgb(0,0,0);stroke-opacity: 1.0;" transform="matrix(1,0,0,1,0,0)" /><line x1="324" y1="324" x2="245" y2="324" style="stroke-width: 1.0;stroke: rgb(0,0,0);stroke-opacity: 1.0;" transform="matrix(1,0,0,1,0,0)" /><line x1="244" y1="324" x2="244" y2="245" style="stroke-width: 1.0;stroke: rgb(0,0,0);stroke-opacity: 1.0;" transform="matrix(1,0,0,1,0,0)" /><g style="fill: rgb(0,255,0); fill-opacity: 1.0; stroke: none" transform="matrix(1,0,0,1,0,0)" ><path d="M 324 4 L 404 4 L 364 44 M 324 4"/></g><g style="fill: rgb(0,0,255); fill-opacity: 1.0; stroke: none" transform="matrix(1,0,0,1,0,0)" ><path d="M 404 4 L 404 84 L 364 44 M 404 4"/></g><g style="fill: rgb(0,255,0); fill-opacity: 1.0; stroke: none" transform="matrix(1,0,0,1,0,0)" ><path d="M 324 84 L 404 84 L 364 44 M 324 84"/></g><g style="fill: rgb(0,255,0); fill-opacity: 1.0; stroke: none" transform="matrix(1,0,0,1,0,0)" ><path d="M 324 4 L 324 84 L 364 44 M 324 4"/></g><line x1="324" y1="4" x2="403" y2="4" style="stroke-width: 1.0;stroke: rgb(0,0,0);stroke-opacity: 1.0;" transform="matrix(1,0,0,1,0,0)" /><line x1="404" y1="4" x2="404" y2="83" style="stroke-width: 1.0;stroke: rgb(0,0,0);stroke-opacity: 1.0;" transform="matrix(1,0,0,1,0,0)" /><line x1="404" y1="84" x2="325" y2="84" style="stroke-width: 1.0;stroke: rgb(0,0,0);stroke-opacity: 1.0;" transform="matrix(1,0,0,1,0,0)" /><line x1="324" y1="84" x2="324" y2="5" style="stroke-width: 1.0;stroke: rgb(0,0,0);stroke-opacity: 1.0;" transform="matrix(1,0,0,1,0,0)" /><g style="fill: rgb(0,255,0); fill-opacity: 1.0; stroke: none" transform="matrix(1,0,0,1,0,0)" ><path d="M 324 84 L 404 84 L 364 124 M 324 84"/></g><g style="fill: rgb(0,255,0); fill-opacity: 1.0; stroke: none" transform="matrix(1,0,0,1,0,0)" ><path d="M 404 84 L 404 164 L 364 124 M 404 84"/></g><g style="fill: rgb(0,255,0); fill-opacity: 1.0; stroke: none" transform="matrix(1,0,0,1,0,0)" ><path d="M 324 164 L 404 164 L 364 124 M 324 164"/></g><g style="fill: rgb(255,0,0); fill-opacity: 1.0; stroke: none" transform="matrix(1,0,0,1,0,0)" ><path d="M 324 84 L 324 164 L 364 124 M 324 84"/></g><line x1="324" y1="84" x2="403" y2="84" style="stroke-width: 1.0;stroke: rgb(0,0,0);stroke-opacity: 1.0;" transform="matrix(1,0,0,1,0,0)" /><line x1="404" y1="84" x2="404" y2="163" style="stroke-width: 1.0;stroke: rgb(0,0,0);stroke-opacity: 1.0;" transform="matrix(1,0,0,1,0,0)" /><line x1="404" y1="164" x2="325" y2="164" style="stroke-width: 1.0;stroke: rgb(0,0,0);stroke-opacity: 1.0;" transform="matrix(1,0,0,1,0,0)" /><line x1="324" y1="164" x2="324" y2="85" style="stroke-width: 1.0;stroke: rgb(0,0,0);stroke-opacity: 1.0;" transform="matrix(1,0,0,1,0,0)" /><g style="fill: rgb(0,255,0); fill-opacity: 1.0; stroke: none" transform="matrix(1,0,0,1,0,0)" ><path d="M 324 164 L 404 164 L 364 204 M 324 164"/></g><g style="fill: rgb(0,0,255); fill-opacity: 1.0; stroke: none" transform="matrix(1,0,0,1,0,0)" ><path d="M 404 164 L 404 244 L 364 204 M 404 164"/></g><g style="fill: rgb(0,255,0); fill-opacity: 1.0; stroke: none" transform="matrix(1,0,0,1,0,0)" ><path d="M 324 244 L 404 244 L 364 204 M 324 244"/></g><g style="fill: rgb(255,0,0); fill-opacity: 1.0; stroke: none" transform="matrix(1,0,0,1,0,0)" ><path d="M 324 164 L 324 244 L 364 204 M 324 164"/></g><line x1="324" y1="164" x2="403" y2="164" style="stroke-width: 1.0;stroke: rgb(0,0,0);stroke-opacity: 1.0;" transform="matrix(1,0,0,1,0,0)" /><line x1="404" y1="164" x2="404" y2="243" style="stroke-width: 1.0;stroke: rgb(0,0,0);stroke-opacity: 1.0;" transform="matrix(1,0,0,1,0,0)" /><line x1="404" y1="244" x2="325" y2="244" style="stroke-width: 1.0;stroke: rgb(0,0,0);stroke-opacity: 1.0;" transform="matrix(1,0,0,1,0,0)" /><line x1="324" y1="244" x2="324" y2="165" style="stroke-width: 1.0;stroke: rgb(0,0,0);stroke-opacity: 1.0;" transform="matrix(1,0,0,1,0,0)" /><g style="fill: rgb(0,255,0); fill-opacity: 1.0; stroke: none" transform="matrix(1,0,0,1,0,0)" ><path d="M 324 244 L 404 244 L 364 284 M 324 244"/></g><g style="fill: rgb(0,255,0); fill-opacity: 1.0; stroke: none" transform="matrix(1,0,0,1,0,0)" ><path d="M 404 244 L 404 324 L 364 284 M 404 244"/></g><g style="fill: rgb(0,255,0); fill-opacity: 1.0; stroke: none" transform="matrix(1,0,0,1,0,0)" ><path d="M 324 324 L 404 324 L 364 284 M 324 324"/></g><g style="fill: rgb(0,255,0); fill-opacity: 1.0; stroke: none" transform="matrix(1,0,0,1,0,0)" ><path d="M 324 244 L 324 324 L 364 284 M 324 244"/></g><line x1="324" y1="244" x2="403" y2="244" style="stroke-width: 1.0;stroke: rgb(0,0,0);stroke-opacity: 1.0;" transform="matrix(1,0,0,1,0,0)" /><line x1="404" y1="244" x2="404" y2="323" style="stroke-width: 1.0;stroke: rgb(0,0,0);stroke-opacity: 1.0;" transform="matrix(1,0,0,1,0,0)" /><line x1="404" y1="324" x2="325" y2="324" style="stroke-width: 1.0;stroke: rgb(0,0,0);stroke-opacity: 1.0;" transform="matrix(1,0,0,1,0,0)" /><line x1="324" y1="324" x2="324" y2="245" style="stroke-width: 1.0;stroke: rgb(0,0,0);stroke-opacity: 1.0;" transform="matrix(1,0,0,1,0,0)" /><g style="fill: rgb(0,255,0); fill-opacity: 1.0; stroke: none" transform="matrix(1,0,0,1,0,0)" ><path d="M 404 4 L 484 4 L 444 44 M 404 4"/></g><g style="fill: rgb(0,255,0); fill-opacity: 1.0; stroke: none" transform="matrix(1,0,0,1,0,0)" ><path d="M 484 4 L 484 84 L 444 44 M 484 4"/></g><g style="fill: rgb(0,0,255); fill-opacity: 1.0; stroke: none" transform="matrix(1,0,0,1,0,0)" ><path d="M 404 84 L 484 84 L 444 44 M 404 84"/></g><g style="fill: rgb(0,0,255); fill-opacity: 1.0; stroke: none" transform="matrix(1,0,0,1,0,0)" ><path d="M 404 4 L 404 84 L 444 44 M 404 4"/></g><line x1="404" y1="4" x2="483" y2="4" style="stroke-width: 1.0;stroke: rgb(0,0,0);stroke-opacity: 1.0;" transform="matrix(1,0,0,1,0,0)" /><line x1="484" y1="4" x2="484" y2="83" style="stroke-width: 1.0;stroke: rgb(0,0,0);stroke-opacity: 1.0;" transform="matrix(1,0,0,1,0,0)" /><line x1="484" y1="84" x2="405" y2="84" style="stroke-width: 1.0;stroke: rgb(0,0,0);stroke-opacity: 1.0;" transform="matrix(1,0,0,1,0,0)" /><line x1="404" y1="84" x2="404" y2="5" style="stroke-width: 1.0;stroke: rgb(0,0,0);stroke-opacity: 1.0;" transform="matrix(1,0,0,1,0,0)" /><g style="fill: rgb(0,0,255); fill-opacity: 1.0; stroke: none" transform="matrix(1,0,0,1,0,0)" ><path d="M 404 84 L 484 84 L 444 124 M 404 84"/></g><g style="fill: rgb(0,0,255); fill-opacity: 1.0; stroke: none" transform="matrix(1,0,0,1,0,0)" ><path d="M 484 84 L 484 164 L 444 124 M 484 84"/></g><g style="fill: rgb(0,0,255); fill-opacity: 1.0; stroke: none" transform="matrix(1,0,0,1,0,0)" ><path d="M 404 164 L 484 164 L 444 124 M 404 164"/></g><g style="fill: rgb(0,255,0); fill-opacity: 1.0; stroke: none" transform="matrix(1,0,0,1,0,0)" ><path d="M 404 84 L 404 164 L 444 124 M 404 84"/></g><line x1="404" y1="84" x2="483" y2="84" style="stroke-width: 1.0;stroke: rgb(0,0,0);stroke-opacity: 1.0;" transform="matrix(1,0,0,1,0,0)" /><line x1="484" y1="84" x2="484" y2="163" style="stroke-width: 1.0;stroke: rgb(0,0,0);stroke-opacity: 1.0;" transform="matrix(1,0,0,1,0,0)" /><line x1="484" y1="164" x2="405" y2="164" style="stroke-width: 1.0;stroke: rgb(0,0,0);stroke-opacity: 1.0;" transform="matrix(1,0,0,1,0,0)" /><line x1="404" y1="164" x2="404" y2="85" style="stroke-width: 1.0;stroke: rgb(0,0,0);stroke-opacity: 1.0;" transform="matrix(1,0,0,1,0,0)" /><g style="fill: rgb(0,0,255); fill-opacity: 1.0; stroke: none" transform="matrix(1,0,0,1,0,0)" ><path d="M 404 164 L 484 164 L 444 204 M 404 164"/></g><g style="fill: rgb(255,0,0); fill-opacity: 1.0; stroke: none" transform="matrix(1,0,0,1,0,0)" ><path d="M 484 164 L 484 244 L 444 204 M 484 164"/></g><g style="fill: rgb(255,0,0); fill-opacity: 1.0; stroke: none" transform="matrix(1,0,0,1,0,0)" ><path d="M 404 244 L 484 244 L 444 204 M 404 244"/></g><g style="fill: rgb(0,0,255); fill-opacity: 1.0; stroke: none" transform="matrix(1,0,0,1,0,0)" ><path d="M 404 164 L 404 244 L 444 204 M 404 164"/></g><line x1="404" y1="164" x2="483" y2="164" style="stroke-width: 1.0;stroke: rgb(0,0,0);stroke-opacity: 1.0;" transform="matrix(1,0,0,1,0,0)" /><line x1="484" y1="164" x2="484" y2="243" style="stroke-width: 1.0;stroke: rgb(0,0,0);stroke-opacity: 1.0;" transform="matrix(1,0,0,1,0,0)" /><line x1="484" y1="244" x2="405" y2="244" style="stroke-width: 1.0;stroke: rgb(0,0,0);stroke-opacity: 1.0;" transform="matrix(1,0,0,1,0,0)" /><line x1="404" y1="244" x2="404" y2="165" style="stroke-width: 1.0;stroke: rgb(0,0,0);stroke-opacity: 1.0;" transform="matrix(1,0,0,1,0,0)" /><g style="fill: rgb(255,0,0); fill-opacity: 1.0; stroke: none" transform="matrix(1,0,0,1,0,0)" ><path d="M 404 244 L 484 244 L 444 284 M 404 244"/></g><g style="fill: rgb(0,0,255); fill-opacity: 1.0; stroke: none" transform="matrix(1,0,0,1,0,0)" ><path d="M 484 244 L 484 324 L 444 284 M 484 244"/></g><g style="fill: rgb(0,255,0); fill-opacity: 1.0; stroke: none" transform="matrix(1,0,0,1,0,0)" ><path d="M 404 324 L 484 324 L 444 284 M 404 324"/></g><g style="fill: rgb(0,255,0); fill-opacity: 1.0; stroke: none" transform="matrix(1,0,0,1,0,0)" ><path d="M 404 244 L 404 324 L 444 284 M 404 244"/></g><line x1="404" y1="244" x2="483" y2="244" style="stroke-width: 1.0;stroke: rgb(0,0,0);stroke-opacity: 1.0;" transform="matrix(1,0,0,1,0,0)" /><line x1="484" y1="244" x2="484" y2="323" style="stroke-width: 1.0;stroke: rgb(0,0,0);stroke-opacity: 1.0;" transform="matrix(1,0,0,1,0,0)" /><line x1="484" y1="324" x2="405" y2="324" style="stroke-width: 1.0;stroke: rgb(0,0,0);stroke-opacity: 1.0;" transform="matrix(1,0,0,1,0,0)" /><line x1="404" y1="324" x2="404" y2="245" style="stroke-width: 1.0;stroke: rgb(0,0,0);stroke-opacity: 1.0;" transform="matrix(1,0,0,1,0,0)" /></svg>
