<svg version="1.1" xmlns="http://www.w3.org/2000/svg" xmlns:xlink="http://www.w3.org/1999/xlink" width="284.587890625" height="184"><defs/><g><g transform="translate(-70,-118) scale(1,1)"><rect fill="#C0C0C0" stroke="none" x="111" y="135" width="240.587890625" height="102" opacity="0.2"/></g><g transform="translate(-70,-118) scale(1,1)"><rect fill="#ffffff" stroke="none" x="104" y="128" width="240.587890625" height="102"/></g><g transform="translate(-70,-118) scale(1,1)"><path fill="none" stroke="#000000" d="M 104 128 L 344.587890625 128 L 344.587890625 230 L 104 230 L 104 128 Z Z" stroke-miterlimit="10"/></g><g transform="translate(-70,-118) scale(1,1)"><path fill="none" stroke="#000000" d="M 104 153 L 344.587890625 153" stroke-miterlimit="10"/></g><g transform="translate(-70,-118) scale(1,1)"><path fill="none" stroke="#000000" d="M 104 163 L 344.587890625 163" stroke-miterlimit="10"/></g><g transform="translate(-70,-118) scale(1,1)"><g><path fill="none" stroke="none"/><text fill="#000000" stroke="none" font-family="Arial" font-size="13px" font-style="normal" font-weight="bold" text-decoration="none" x="189.975341796875" y="147.5">BasicSolver</text></g></g><g transform="translate(-70,-118) scale(1,1)"><g><path fill="none" stroke="none"/><text fill="#000000" stroke="none" font-family="Arial" font-size="13px" font-style="normal" font-weight="normal" text-decoration="none" x="109" y="180.5">+select(b: Bind): Variable&lt;?&gt;</text></g></g><g transform="translate(-70,-118) scale(1,1)"><g><path fill="none" stroke="none"/><text fill="#000000" stroke="none" font-family="Arial" font-size="13px" font-style="normal" font-weight="normal" text-decoration="none" x="109" y="195.5">+solveSimple(b: Bind): boolean</text></g></g><g transform="translate(-70,-118) scale(1,1)"><g><path fill="none" stroke="none"/><text fill="#000000" stroke="none" font-family="Arial" font-size="13px" font-style="normal" font-weight="normal" text-decoration="none" x="109" y="210.5">+solveInternal(p: Problem, b: Bind)</text></g></g><g transform="translate(-70,-118) scale(1,1)"><g><path fill="none" stroke="none"/><text fill="#000000" stroke="none" font-family="Arial" font-size="13px" font-style="normal" font-weight="normal" text-decoration="none" x="109" y="225.5">+solve(p: Problem, b: Bid, a: Answer)</text></g></g><g transform="translate(-70,-118) scale(1,1)"><rect fill="#C0C0C0" stroke="none" x="87" y="255" width="83.4326171875" height="44" opacity="0.2"/></g><g transform="translate(-70,-118) scale(1,1)"><rect fill="#ffffff" stroke="none" x="80" y="248" width="83.4326171875" height="44"/></g><g transform="translate(-70,-118) scale(1,1)"><path fill="none" stroke="#000000" d="M 80 248 L 163.4326171875 248 L 163.4326171875 292 L 80 292 L 80 248 Z Z" stroke-miterlimit="10"/></g><g transform="translate(-70,-118) scale(1,1)"><path fill="none" stroke="#000000" d="M 80 273 L 163.4326171875 273" stroke-miterlimit="10"/></g><g transform="translate(-70,-118) scale(1,1)"><path fill="none" stroke="#000000" d="M 80 283 L 163.4326171875 283" stroke-miterlimit="10"/></g><g transform="translate(-70,-118) scale(1,1)"><g><path fill="none" stroke="none"/><text fill="#000000" stroke="none" font-family="Arial" font-size="13px" font-style="normal" font-weight="bold" text-decoration="none" x="87.1533203125" y="267.5">VarsBackup</text></g></g></g></svg>