<svg version="1.1" xmlns="http://www.w3.org/2000/svg" xmlns:xlink="http://www.w3.org/1999/xlink" width="390.92041015625" height="582"><defs/><g><g transform="translate(-14,-14) scale(1,1)"><rect fill="#C0C0C0" stroke="none" x="31" y="343" width="61.0126953125" height="44" opacity="0.2"/></g><g transform="translate(-14,-14) scale(1,1)"><rect fill="#ffffff" stroke="none" x="24" y="336" width="61.0126953125" height="44"/></g><g transform="translate(-14,-14) scale(1,1)"><path fill="none" stroke="#000000" d="M 24 336 L 85.0126953125 336 L 85.0126953125 380 L 24 380 L 24 336 Z Z" stroke-miterlimit="10"/></g><g transform="translate(-14,-14) scale(1,1)"><path fill="none" stroke="#000000" d="M 24 361 L 85.0126953125 361" stroke-miterlimit="10"/></g><g transform="translate(-14,-14) scale(1,1)"><path fill="none" stroke="#000000" d="M 24 371 L 85.0126953125 371" stroke-miterlimit="10"/></g><g transform="translate(-14,-14) scale(1,1)"><g><path fill="none" stroke="none"/><text fill="#000000" stroke="none" font-family="Arial" font-size="13px" font-style="normal" font-weight="bold" text-decoration="none" x="30.302734375" y="355.5">Problem</text></g></g><g transform="translate(-14,-14) scale(1,1)"><rect fill="#C0C0C0" stroke="none" x="223" y="159" width="178.92041015625" height="72" opacity="0.2"/></g><g transform="translate(-14,-14) scale(1,1)"><rect fill="#ffffff" stroke="none" x="216" y="152" width="178.92041015625" height="72"/></g><g transform="translate(-14,-14) scale(1,1)"><path fill="none" stroke="#000000" d="M 216 152 L 394.92041015625 152 L 394.92041015625 224 L 216 224 L 216 152 Z Z" stroke-miterlimit="10"/></g><g transform="translate(-14,-14) scale(1,1)"><path fill="none" stroke="#000000" d="M 216 177 L 394.92041015625 177" stroke-miterlimit="10"/></g><g transform="translate(-14,-14) scale(1,1)"><path fill="none" stroke="#000000" d="M 216 187 L 394.92041015625 187" stroke-miterlimit="10"/></g><g transform="translate(-14,-14) scale(1,1)"><g><path fill="none" stroke="none"/><text fill="#000000" stroke="none" font-family="Arial" font-size="13px" font-style="normal" font-weight="bold" text-decoration="none" x="292.45068359375" y="171.5">Bind</text></g></g><g transform="translate(-14,-14) scale(1,1)"><g><path fill="none" stroke="none"/><text fill="#000000" stroke="none" font-family="Arial" font-size="13px" font-style="normal" font-weight="normal" text-decoration="none" x="221" y="204.5">+get(v: Variable): Domain&lt;T&gt;</text></g></g><g transform="translate(-14,-14) scale(1,1)"><g><path fill="none" stroke="none"/><text fill="#000000" stroke="none" font-family="Arial" font-size="13px" font-style="normal" font-weight="normal" text-decoration="none" x="221" y="219.5">+bind(): Bind</text></g></g><g transform="translate(-14,-14) scale(1,1)"><rect fill="#C0C0C0" stroke="none" x="231" y="49" width="93.32080078125" height="60" opacity="0.2"/></g><g transform="translate(-14,-14) scale(1,1)"><rect fill="#C0C0C0" stroke="none" x="316.3798828125" y="31" width="16.94091796875" height="22" opacity="0.2"/></g><g transform="translate(-14,-14) scale(1,1)"><rect fill="#ffffff" stroke="none" x="224" y="42" width="93.32080078125" height="60"/></g><g transform="translate(-14,-14) scale(1,1)"><path fill="none" stroke="#000000" d="M 224 42 L 317.32080078125 42 L 317.32080078125 102 L 224 102 L 224 42 Z Z" stroke-miterlimit="10"/></g><g transform="translate(-14,-14) scale(1,1)"><path fill="none" stroke="#000000" d="M 224 80 L 317.32080078125 80" stroke-miterlimit="10"/></g><g transform="translate(-14,-14) scale(1,1)"><g><path fill="none" stroke="none"/><text fill="#000000" stroke="none" font-family="Arial" font-size="13px" font-style="normal" font-weight="normal" text-decoration="none" x="238.5" y="59.5">«interface»</text></g></g><g transform="translate(-14,-14) scale(1,1)"><g><path fill="none" stroke="none"/><text fill="#000000" stroke="none" font-family="Arial" font-size="13px" font-style="normal" font-weight="bold" text-decoration="none" x="248.97998046875" y="74.5">Iterable</text></g></g><g transform="translate(-14,-14) scale(1,1)"><g><path fill="none" stroke="none"/><text fill="#000000" stroke="none" font-family="Arial" font-size="13px" font-style="normal" font-weight="normal" text-decoration="none" x="229" y="97.5">+iterator()</text></g></g><g transform="translate(-14,-14) scale(1,1)"><rect fill="#ffffff" stroke="none" x="309.3798828125" y="24" width="16.94091796875" height="22"/></g><g transform="translate(-14,-14) scale(1,1)"><path fill="none" stroke="#000000" d="M 309.3798828125 24 L 326.32080078125 24 L 326.32080078125 46 L 309.3798828125 46 L 309.3798828125 24 Z Z" stroke-miterlimit="10" stroke-dasharray="3"/></g><g transform="translate(-14,-14) scale(1,1)"><g><path fill="none" stroke="none"/><text fill="#000000" stroke="none" font-family="Arial" font-size="13px" font-style="normal" font-weight="normal" text-decoration="none" x="314.3798828125" y="41.5">T</text></g></g><g transform="translate(-14,-14) scale(1,1)"><path fill="none" stroke="#000000" d="M 296 151 L 285 103" stroke-miterlimit="10" stroke-dasharray="3"/></g><g transform="translate(-14,-14) scale(1,1)"><path fill="#FFFFFF" stroke="none" d="M 297.74650449985774 120.93116346016359 L 285 103 L 281.33389249102817 124.69238704552038"/></g><g transform="translate(-14,-14) scale(1,1)"><path fill="none" stroke="#000000" d="M 297.74650449985774 120.93116346016359 L 285 103 L 281.33389249102817 124.69238704552038 L 297.74650449985774 120.93116346016359" stroke-miterlimit="10"/></g><g transform="translate(-14,-14) scale(1,1)"><rect fill="#C0C0C0" stroke="none" x="31" y="521" width="275.77783203125" height="72" opacity="0.2"/></g><g transform="translate(-14,-14) scale(1,1)"><rect fill="#C0C0C0" stroke="none" x="298.8369140625" y="503" width="16.94091796875" height="22" opacity="0.2"/></g><g transform="translate(-14,-14) scale(1,1)"><rect fill="#ffffff" stroke="none" x="24" y="514" width="275.77783203125" height="72"/></g><g transform="translate(-14,-14) scale(1,1)"><path fill="none" stroke="#000000" d="M 24 514 L 299.77783203125 514 L 299.77783203125 586 L 24 586 L 24 514 Z Z" stroke-miterlimit="10"/></g><g transform="translate(-14,-14) scale(1,1)"><path fill="none" stroke="#000000" d="M 24 539 L 299.77783203125 539" stroke-miterlimit="10"/></g><g transform="translate(-14,-14) scale(1,1)"><path fill="none" stroke="#000000" d="M 24 549 L 299.77783203125 549" stroke-miterlimit="10"/></g><g transform="translate(-14,-14) scale(1,1)"><g><path fill="none" stroke="none"/><text fill="#000000" stroke="none" font-family="Arial" font-size="13px" font-style="normal" font-weight="bold" text-decoration="none" x="138.523193359375" y="533.5">Variable</text></g></g><g transform="translate(-14,-14) scale(1,1)"><g><path fill="none" stroke="none"/><text fill="#000000" stroke="none" font-family="Arial" font-size="13px" font-style="normal" font-weight="normal" text-decoration="none" x="29" y="566.5">+bind(d: Domain&lt;T&gt;, b: Bind): boolean</text></g></g><g transform="translate(-14,-14) scale(1,1)"><g><path fill="none" stroke="none"/><text fill="#000000" stroke="none" font-family="Arial" font-size="13px" font-style="normal" font-weight="normal" text-decoration="none" x="29" y="581.5">+rawBind(d: Domain&lt;T&gt;, b: Bind): boolean</text></g></g><g transform="translate(-14,-14) scale(1,1)"><rect fill="#ffffff" stroke="none" x="291.8369140625" y="496" width="16.94091796875" height="22"/></g><g transform="translate(-14,-14) scale(1,1)"><path fill="none" stroke="#000000" d="M 291.8369140625 496 L 308.77783203125 496 L 308.77783203125 518 L 291.8369140625 518 L 291.8369140625 496 Z Z" stroke-miterlimit="10" stroke-dasharray="3"/></g><g transform="translate(-14,-14) scale(1,1)"><g><path fill="none" stroke="none"/><text fill="#000000" stroke="none" font-family="Arial" font-size="13px" font-style="normal" font-weight="normal" text-decoration="none" x="296.8369140625" y="513.5">T</text></g></g><g transform="translate(-14,-14) scale(1,1)"><rect fill="#C0C0C0" stroke="none" x="295" y="415" width="74" height="44" opacity="0.2"/></g><g transform="translate(-14,-14) scale(1,1)"><rect fill="#ffffff" stroke="none" x="288" y="408" width="74" height="44"/></g><g transform="translate(-14,-14) scale(1,1)"><path fill="none" stroke="#000000" d="M 288 408 L 362 408 L 362 452 L 288 452 L 288 408 Z Z" stroke-miterlimit="10"/></g><g transform="translate(-14,-14) scale(1,1)"><path fill="none" stroke="#000000" d="M 288 433 L 362 433" stroke-miterlimit="10"/></g><g transform="translate(-14,-14) scale(1,1)"><path fill="none" stroke="#000000" d="M 288 443 L 362 443" stroke-miterlimit="10"/></g><g transform="translate(-14,-14) scale(1,1)"><g><path fill="none" stroke="none"/><text fill="#000000" stroke="none" font-family="Arial" font-size="13px" font-style="normal" font-weight="bold" text-decoration="none" x="295.37548828125" y="427.5">Constraint</text></g></g><g transform="translate(-14,-14) scale(1,1)"><rect fill="#C0C0C0" stroke="none" x="199" y="255" width="122.2421875" height="87" opacity="0.2"/></g><g transform="translate(-14,-14) scale(1,1)"><rect fill="#ffffff" stroke="none" x="192" y="248" width="122.2421875" height="87"/></g><g transform="translate(-14,-14) scale(1,1)"><path fill="none" stroke="#000000" d="M 192 248 L 314.2421875 248 L 314.2421875 335 L 192 335 L 192 248 Z Z" stroke-miterlimit="10"/></g><g transform="translate(-14,-14) scale(1,1)"><path fill="none" stroke="#000000" d="M 192 273 L 314.2421875 273" stroke-miterlimit="10"/></g><g transform="translate(-14,-14) scale(1,1)"><path fill="none" stroke="#000000" d="M 192 326 L 314.2421875 326" stroke-miterlimit="10"/></g><g transform="translate(-14,-14) scale(1,1)"><g><path fill="none" stroke="none"/><text fill="#000000" stroke="none" font-family="Arial" font-size="13px" font-style="italic" font-weight="bold" text-decoration="none" x="201.19091796875" y="267.5">ProblemElement</text></g></g><g transform="translate(-14,-14) scale(1,1)"><g><path fill="none" stroke="none"/><text fill="#000000" stroke="none" font-family="Arial" font-size="13px" font-style="normal" font-weight="normal" text-decoration="none" x="197" y="290.5">+no: int</text></g></g><g transform="translate(-14,-14) scale(1,1)"><g><path fill="none" stroke="none"/><text fill="#000000" stroke="none" font-family="Arial" font-size="13px" font-style="normal" font-weight="normal" text-decoration="none" x="197" y="305.5">+name: String</text></g></g><g transform="translate(-14,-14) scale(1,1)"><g><path fill="none" stroke="none"/><text fill="#000000" stroke="none" font-family="Arial" font-size="13px" font-style="normal" font-weight="normal" text-decoration="none" x="197" y="320.5">+problem: Problem</text></g></g><g transform="translate(-14,-14) scale(1,1)"><path fill="none" stroke="#000000" d="M 313 407 L 276 336" stroke-miterlimit="10"/></g><g transform="translate(-14,-14) scale(1,1)"><path fill="#FFFFFF" stroke="none" d="M 292.8592021495559 350.13390614375265 L 276 336 L 277.9270752864441 357.91543704424754"/></g><g transform="translate(-14,-14) scale(1,1)"><path fill="none" stroke="#000000" d="M 292.8592021495559 350.13390614375265 L 276 336 L 277.9270752864441 357.91543704424754 L 292.8592021495559 350.13390614375265" stroke-miterlimit="10"/></g><g transform="translate(-14,-14) scale(1,1)"><path fill="none" stroke="#000000" d="M 182 495 L 237 336" stroke-miterlimit="10"/></g><g transform="translate(-14,-14) scale(1,1)"><path fill="#FFFFFF" stroke="none" d="M 238.31197892241588 357.9608449588611 L 237 336 L 222.39904680181698 352.4563715838112"/></g><g transform="translate(-14,-14) scale(1,1)"><path fill="none" stroke="#000000" d="M 238.31197892241588 357.9608449588611 L 237 336 L 222.39904680181698 352.4563715838112 L 238.31197892241588 357.9608449588611" stroke-miterlimit="10"/></g><g transform="translate(-14,-14) scale(1,1)"><rect fill="#C0C0C0" stroke="none" x="39" y="225" width="139.20166015625" height="57" opacity="0.2"/></g><g transform="translate(-14,-14) scale(1,1)"><rect fill="#C0C0C0" stroke="none" x="170.2607421875" y="207" width="16.94091796875" height="22" opacity="0.2"/></g><g transform="translate(-14,-14) scale(1,1)"><rect fill="#ffffff" stroke="none" x="32" y="218" width="139.20166015625" height="57"/></g><g transform="translate(-14,-14) scale(1,1)"><path fill="none" stroke="#000000" d="M 32 218 L 171.20166015625 218 L 171.20166015625 275 L 32 275 L 32 218 Z Z" stroke-miterlimit="10"/></g><g transform="translate(-14,-14) scale(1,1)"><path fill="none" stroke="#000000" d="M 32 243 L 171.20166015625 243" stroke-miterlimit="10"/></g><g transform="translate(-14,-14) scale(1,1)"><path fill="none" stroke="#000000" d="M 32 266 L 171.20166015625 266" stroke-miterlimit="10"/></g><g transform="translate(-14,-14) scale(1,1)"><g><path fill="none" stroke="none"/><text fill="#000000" stroke="none" font-family="Arial" font-size="13px" font-style="normal" font-weight="bold" text-decoration="none" x="79.203125" y="237.5">Domain</text></g></g><g transform="translate(-14,-14) scale(1,1)"><g><path fill="none" stroke="none"/><text fill="#000000" stroke="none" font-family="Arial" font-size="13px" font-style="normal" font-weight="normal" text-decoration="none" x="37" y="260.5">+elements: Set&lt;T&gt;</text></g></g><g transform="translate(-14,-14) scale(1,1)"><rect fill="#ffffff" stroke="none" x="163.2607421875" y="200" width="16.94091796875" height="22"/></g><g transform="translate(-14,-14) scale(1,1)"><path fill="none" stroke="#000000" d="M 163.2607421875 200 L 180.20166015625 200 L 180.20166015625 222 L 163.2607421875 222 L 163.2607421875 200 Z Z" stroke-miterlimit="10" stroke-dasharray="3"/></g><g transform="translate(-14,-14) scale(1,1)"><g><path fill="none" stroke="none"/><text fill="#000000" stroke="none" font-family="Arial" font-size="13px" font-style="normal" font-weight="normal" text-decoration="none" x="168.2607421875" y="217.5">T</text></g></g><g transform="translate(-14,-14) scale(1,1)"><path fill="none" stroke="#000000" d="M 157 495 L 114 276" stroke-miterlimit="10"/></g><g transform="translate(-14,-14) scale(1,1)"><path fill="none" stroke="#000000" d="M 120.08867294612797 285.16122599628943 L 114 276 L 111.82737690267541 286.7833069545929" stroke-miterlimit="10"/></g><g transform="translate(-14,-14) scale(1,1)"><g><path fill="none" stroke="none"/><text fill="#000000" stroke="none" font-family="Arial" font-size="13px" font-style="normal" font-weight="normal" text-decoration="none" x="94.5" y="393.5">+domain</text></g></g><g transform="translate(-14,-14) scale(1,1)"><g><path fill="none" stroke="none"/><text fill="#000000" stroke="none" font-family="Arial" font-size="13px" font-style="normal" font-weight="normal" text-decoration="none" x="126.5" y="300.5">1</text></g></g><g transform="translate(-14,-14) scale(1,1)"><path fill="none" stroke="#000000" d="M 232 495 L 292 453" stroke-miterlimit="10"/></g><g transform="translate(-14,-14) scale(1,1)"><path fill="none" stroke="#000000" d="M 286.088412279782 462.2764826645754 L 292 453 L 281.260412437774 455.3793400331354" stroke-miterlimit="10"/></g><g transform="translate(-14,-14) scale(1,1)"><g><path fill="none" stroke="none"/><text fill="#000000" stroke="none" font-family="Arial" font-size="13px" font-style="normal" font-weight="normal" text-decoration="none" x="217.5" y="467.5">+constraints</text></g></g><g transform="translate(-14,-14) scale(1,1)"><g><path fill="none" stroke="none"/><text fill="#000000" stroke="none" font-family="Arial" font-size="13px" font-style="normal" font-weight="normal" text-decoration="none" x="278.5" y="481.5">*</text></g></g><g transform="translate(-14,-14) scale(1,1)"><path fill="none" stroke="#000000" d="M 143 199 L 236 103" stroke-miterlimit="10" stroke-dasharray="3"/></g><g transform="translate(-14,-14) scale(1,1)"><path fill="#FFFFFF" stroke="none" d="M 227.9046088499511 123.45640833889738 L 236 103 L 215.8108289662875 111.74055907659825"/></g><g transform="translate(-14,-14) scale(1,1)"><path fill="none" stroke="#000000" d="M 227.9046088499511 123.45640833889738 L 236 103 L 215.8108289662875 111.74055907659825 L 227.9046088499511 123.45640833889738" stroke-miterlimit="10"/></g><g transform="translate(-14,-14) scale(1,1)"><path fill="none" stroke="#000000" d="M 68 381 L 138 495" stroke-miterlimit="10"/></g><g transform="translate(-14,-14) scale(1,1)"><path fill="none" stroke="#000000" d="M 129.0950180213582 488.5423459398893 L 138 495 L 136.26947783301952 484.1369758800972" stroke-miterlimit="10"/></g><g transform="translate(-14,-14) scale(1,1)"><g><path fill="none" stroke="none"/><text fill="#000000" stroke="none" font-family="Arial" font-size="13px" font-style="normal" font-weight="normal" text-decoration="none" x="85.5" y="436.5">+variables</text></g></g><g transform="translate(-14,-14) scale(1,1)"><g><path fill="none" stroke="none"/><text fill="#000000" stroke="none" font-family="Arial" font-size="13px" font-style="normal" font-weight="normal" text-decoration="none" x="113.5" y="489.5">*</text></g></g></g></svg>