<?xml version="1.0" encoding="UTF-8"?><svg xmlns="http://www.w3.org/2000/svg" xmlns:xlink="http://www.w3.org/1999/xlink" fill-opacity="1" color-rendering="auto" color-interpolation="auto" text-rendering="auto" stroke="black" stroke-linecap="square" width="286" stroke-miterlimit="10" shape-rendering="auto" stroke-opacity="1" fill="black" stroke-dasharray="none" font-weight="normal" stroke-width="1" height="280" font-family="'Dialog'" font-style="normal" stroke-linejoin="miter" font-size="12" stroke-dashoffset="0" image-rendering="auto">
  <!--Generated by ySVG 2.5-->
  <defs id="genericDefs"/>
  <g>
    <defs id="defs1">
      <clipPath clipPathUnits="userSpaceOnUse" id="clipPath1">
        <path d="M0 0 L286 0 L286 280 L0 280 L0 0 Z"/>
      </clipPath>
      <clipPath clipPathUnits="userSpaceOnUse" id="clipPath2">
        <path d="M41 -148 L327 -148 L327 132 L41 132 L41 -148 Z"/>
      </clipPath>
    </defs>
    <g fill="white" text-rendering="geometricPrecision" shape-rendering="geometricPrecision" transform="translate(-41,148)" stroke="white">
      <rect x="41" width="286" height="280" y="-148" clip-path="url(#clipPath2)" stroke="none"/>
    </g>
    <g fill="rgb(255,204,0)" text-rendering="geometricPrecision" shape-rendering="geometricPrecision" transform="matrix(1,0,0,1,-41,148)" stroke="rgb(255,204,0)">
      <circle r="6.25" clip-path="url(#clipPath2)" cx="254.3611" cy="-52" stroke="none"/>
    </g>
    <g text-rendering="geometricPrecision" stroke-miterlimit="1.45" shape-rendering="geometricPrecision" font-family="sans-serif" transform="matrix(1,0,0,1,-41,148)" stroke-linecap="butt">
      <text x="251.0242" xml:space="preserve" y="-47.2861" clip-path="url(#clipPath2)" stroke="none">1</text>
      <circle fill="none" r="6.25" clip-path="url(#clipPath2)" cx="254.3611" cy="-52"/>
    </g>
    <g fill="rgb(255,204,0)" text-rendering="geometricPrecision" shape-rendering="geometricPrecision" transform="matrix(1,0,0,1,-41,148)" stroke="rgb(255,204,0)">
      <circle r="6.25" clip-path="url(#clipPath2)" cx="263.25" cy="-1" stroke="none"/>
    </g>
    <g text-rendering="geometricPrecision" stroke-miterlimit="1.45" shape-rendering="geometricPrecision" font-family="sans-serif" transform="matrix(1,0,0,1,-41,148)" stroke-linecap="butt">
      <text x="259.9131" xml:space="preserve" y="3.7139" clip-path="url(#clipPath2)" stroke="none">2</text>
      <circle fill="none" r="6.25" clip-path="url(#clipPath2)" cx="263.25" cy="-1"/>
    </g>
    <g fill="rgb(255,204,0)" text-rendering="geometricPrecision" shape-rendering="geometricPrecision" transform="matrix(1,0,0,1,-41,148)" stroke="rgb(255,204,0)">
      <circle r="6.25" clip-path="url(#clipPath2)" cx="231" cy="41.5" stroke="none"/>
    </g>
    <g text-rendering="geometricPrecision" stroke-miterlimit="1.45" shape-rendering="geometricPrecision" font-family="sans-serif" transform="matrix(1,0,0,1,-41,148)" stroke-linecap="butt">
      <text x="227.6631" xml:space="preserve" y="46.2139" clip-path="url(#clipPath2)" stroke="none">3</text>
      <circle fill="none" r="6.25" clip-path="url(#clipPath2)" cx="231" cy="41.5"/>
    </g>
    <g fill="rgb(255,204,0)" text-rendering="geometricPrecision" shape-rendering="geometricPrecision" transform="matrix(1,0,0,1,-41,148)" stroke="rgb(255,204,0)">
      <circle r="6.25" clip-path="url(#clipPath2)" cx="205.5" cy="19.75" stroke="none"/>
    </g>
    <g text-rendering="geometricPrecision" stroke-miterlimit="1.45" shape-rendering="geometricPrecision" font-family="sans-serif" transform="matrix(1,0,0,1,-41,148)" stroke-linecap="butt">
      <text x="202.1631" xml:space="preserve" y="24.4639" clip-path="url(#clipPath2)" stroke="none">4</text>
      <circle fill="none" r="6.25" clip-path="url(#clipPath2)" cx="205.5" cy="19.75"/>
    </g>
    <g fill="rgb(255,204,0)" text-rendering="geometricPrecision" shape-rendering="geometricPrecision" transform="matrix(1,0,0,1,-41,148)" stroke="rgb(255,204,0)">
      <circle r="6.25" clip-path="url(#clipPath2)" cx="218" cy="-23" stroke="none"/>
    </g>
    <g text-rendering="geometricPrecision" stroke-miterlimit="1.45" shape-rendering="geometricPrecision" font-family="sans-serif" transform="matrix(1,0,0,1,-41,148)" stroke-linecap="butt">
      <text x="214.6631" xml:space="preserve" y="-18.2861" clip-path="url(#clipPath2)" stroke="none">5</text>
      <circle fill="none" r="6.25" clip-path="url(#clipPath2)" cx="218" cy="-23"/>
    </g>
    <g fill="rgb(255,204,0)" text-rendering="geometricPrecision" shape-rendering="geometricPrecision" transform="matrix(1,0,0,1,-41,148)" stroke="rgb(255,204,0)">
      <circle r="6.25" clip-path="url(#clipPath2)" cx="305.75" cy="7.5" stroke="none"/>
    </g>
    <g text-rendering="geometricPrecision" stroke-miterlimit="1.45" shape-rendering="geometricPrecision" font-family="sans-serif" transform="matrix(1,0,0,1,-41,148)" stroke-linecap="butt">
      <text x="302.4131" xml:space="preserve" y="12.2139" clip-path="url(#clipPath2)" stroke="none">6</text>
      <circle fill="none" r="6.25" clip-path="url(#clipPath2)" cx="305.75" cy="7.5"/>
    </g>
    <g fill="rgb(255,204,0)" text-rendering="geometricPrecision" shape-rendering="geometricPrecision" transform="matrix(1,0,0,1,-41,148)" stroke="rgb(255,204,0)">
      <circle r="6.25" clip-path="url(#clipPath2)" cx="188.5" cy="69.1389" stroke="none"/>
    </g>
    <g text-rendering="geometricPrecision" stroke-miterlimit="1.45" shape-rendering="geometricPrecision" font-family="sans-serif" transform="matrix(1,0,0,1,-41,148)" stroke-linecap="butt">
      <text x="185.1631" xml:space="preserve" y="73.8528" clip-path="url(#clipPath2)" stroke="none">7</text>
      <circle fill="none" r="6.25" clip-path="url(#clipPath2)" cx="188.5" cy="69.1389"/>
    </g>
    <g fill="rgb(255,204,0)" text-rendering="geometricPrecision" shape-rendering="geometricPrecision" transform="matrix(1,0,0,1,-41,148)" stroke="rgb(255,204,0)">
      <circle r="6.25" clip-path="url(#clipPath2)" cx="153.5" cy="19.75" stroke="none"/>
    </g>
    <g text-rendering="geometricPrecision" stroke-miterlimit="1.45" shape-rendering="geometricPrecision" font-family="sans-serif" transform="matrix(1,0,0,1,-41,148)" stroke-linecap="butt">
      <text x="150.1631" xml:space="preserve" y="24.4639" clip-path="url(#clipPath2)" stroke="none">8</text>
      <circle fill="none" r="6.25" clip-path="url(#clipPath2)" cx="153.5" cy="19.75"/>
    </g>
    <g fill="rgb(255,204,0)" text-rendering="geometricPrecision" shape-rendering="geometricPrecision" transform="matrix(1,0,0,1,-41,148)" stroke="rgb(255,204,0)">
      <circle r="6.25" clip-path="url(#clipPath2)" cx="182" cy="-52" stroke="none"/>
    </g>
    <g text-rendering="geometricPrecision" stroke-miterlimit="1.45" shape-rendering="geometricPrecision" font-family="sans-serif" transform="matrix(1,0,0,1,-41,148)" stroke-linecap="butt">
      <text x="178.6631" xml:space="preserve" y="-47.2861" clip-path="url(#clipPath2)" stroke="none">9</text>
      <circle fill="none" r="6.25" clip-path="url(#clipPath2)" cx="182" cy="-52"/>
    </g>
    <g fill="rgb(255,204,0)" text-rendering="geometricPrecision" shape-rendering="geometricPrecision" transform="matrix(1,0,0,1,-41,148)" stroke="rgb(255,204,0)">
      <circle r="6.25" clip-path="url(#clipPath2)" cx="231" cy="-86" stroke="none"/>
    </g>
    <g text-rendering="geometricPrecision" stroke-miterlimit="1.45" shape-rendering="geometricPrecision" font-family="sans-serif" transform="matrix(1,0,0,1,-41,148)" stroke-linecap="butt">
      <text x="224.3262" xml:space="preserve" y="-81.2861" clip-path="url(#clipPath2)" stroke="none">10</text>
      <circle fill="none" r="6.25" clip-path="url(#clipPath2)" cx="231" cy="-86"/>
    </g>
    <g fill="rgb(255,204,0)" text-rendering="geometricPrecision" shape-rendering="geometricPrecision" transform="matrix(1,0,0,1,-41,148)" stroke="rgb(255,204,0)">
      <circle r="6.25" clip-path="url(#clipPath2)" cx="258.4167" cy="-123.1389" stroke="none"/>
    </g>
    <g text-rendering="geometricPrecision" stroke-miterlimit="1.45" shape-rendering="geometricPrecision" font-family="sans-serif" transform="matrix(1,0,0,1,-41,148)" stroke-linecap="butt">
      <text x="251.7428" xml:space="preserve" y="-118.425" clip-path="url(#clipPath2)" stroke="none">11</text>
      <circle fill="none" r="6.25" clip-path="url(#clipPath2)" cx="258.4167" cy="-123.1389"/>
    </g>
    <g fill="rgb(255,204,0)" text-rendering="geometricPrecision" shape-rendering="geometricPrecision" transform="matrix(1,0,0,1,-41,148)" stroke="rgb(255,204,0)">
      <circle r="6.25" clip-path="url(#clipPath2)" cx="188.5" cy="106.8889" stroke="none"/>
    </g>
    <g text-rendering="geometricPrecision" stroke-miterlimit="1.45" shape-rendering="geometricPrecision" font-family="sans-serif" transform="matrix(1,0,0,1,-41,148)" stroke-linecap="butt">
      <text x="181.8262" xml:space="preserve" y="111.6028" clip-path="url(#clipPath2)" stroke="none">12</text>
      <circle fill="none" r="6.25" clip-path="url(#clipPath2)" cx="188.5" cy="106.8889"/>
    </g>
    <g fill="rgb(255,204,0)" text-rendering="geometricPrecision" shape-rendering="geometricPrecision" transform="matrix(1,0,0,1,-41,148)" stroke="rgb(255,204,0)">
      <circle r="6.25" clip-path="url(#clipPath2)" cx="141" cy="51.2222" stroke="none"/>
    </g>
    <g text-rendering="geometricPrecision" stroke-miterlimit="1.45" shape-rendering="geometricPrecision" font-family="sans-serif" transform="matrix(1,0,0,1,-41,148)" stroke-linecap="butt">
      <text x="134.3262" xml:space="preserve" y="55.9361" clip-path="url(#clipPath2)" stroke="none">13</text>
      <circle fill="none" r="6.25" clip-path="url(#clipPath2)" cx="141" cy="51.2222"/>
    </g>
    <g fill="rgb(255,204,0)" text-rendering="geometricPrecision" shape-rendering="geometricPrecision" transform="matrix(1,0,0,1,-41,148)" stroke="rgb(255,204,0)">
      <circle r="6.25" clip-path="url(#clipPath2)" cx="144" cy="-23" stroke="none"/>
    </g>
    <g text-rendering="geometricPrecision" stroke-miterlimit="1.45" shape-rendering="geometricPrecision" font-family="sans-serif" transform="matrix(1,0,0,1,-41,148)" stroke-linecap="butt">
      <text x="137.3262" xml:space="preserve" y="-18.2861" clip-path="url(#clipPath2)" stroke="none">14</text>
      <circle fill="none" r="6.25" clip-path="url(#clipPath2)" cx="144" cy="-23"/>
    </g>
    <g fill="rgb(255,204,0)" text-rendering="geometricPrecision" shape-rendering="geometricPrecision" transform="matrix(1,0,0,1,-41,148)" stroke="rgb(255,204,0)">
      <circle r="6.25" clip-path="url(#clipPath2)" cx="182" cy="-87" stroke="none"/>
    </g>
    <g text-rendering="geometricPrecision" stroke-miterlimit="1.45" shape-rendering="geometricPrecision" font-family="sans-serif" transform="matrix(1,0,0,1,-41,148)" stroke-linecap="butt">
      <text x="175.3262" xml:space="preserve" y="-82.2861" clip-path="url(#clipPath2)" stroke="none">15</text>
      <circle fill="none" r="6.25" clip-path="url(#clipPath2)" cx="182" cy="-87"/>
    </g>
    <g fill="rgb(255,204,0)" text-rendering="geometricPrecision" shape-rendering="geometricPrecision" transform="matrix(1,0,0,1,-41,148)" stroke="rgb(255,204,0)">
      <circle r="6.25" clip-path="url(#clipPath2)" cx="90.75" cy="-111.25" stroke="none"/>
    </g>
    <g text-rendering="geometricPrecision" stroke-miterlimit="1.45" shape-rendering="geometricPrecision" font-family="sans-serif" transform="matrix(1,0,0,1,-41,148)" stroke-linecap="butt">
      <text x="84.0762" xml:space="preserve" y="-106.5361" clip-path="url(#clipPath2)" stroke="none">16</text>
      <circle fill="none" r="6.25" clip-path="url(#clipPath2)" cx="90.75" cy="-111.25"/>
    </g>
    <g fill="rgb(255,204,0)" text-rendering="geometricPrecision" shape-rendering="geometricPrecision" transform="matrix(1,0,0,1,-41,148)" stroke="rgb(255,204,0)">
      <circle r="6.25" clip-path="url(#clipPath2)" cx="64.8889" cy="41.5" stroke="none"/>
    </g>
    <g text-rendering="geometricPrecision" stroke-miterlimit="1.45" shape-rendering="geometricPrecision" font-family="sans-serif" transform="matrix(1,0,0,1,-41,148)" stroke-linecap="butt">
      <text x="58.2151" xml:space="preserve" y="46.2139" clip-path="url(#clipPath2)" stroke="none">17</text>
      <circle fill="none" r="6.25" clip-path="url(#clipPath2)" cx="64.8889" cy="41.5"/>
    </g>
    <g fill="rgb(255,204,0)" text-rendering="geometricPrecision" shape-rendering="geometricPrecision" transform="matrix(1,0,0,1,-41,148)" stroke="rgb(255,204,0)">
      <circle r="6.25" clip-path="url(#clipPath2)" cx="101.5" cy="19.5" stroke="none"/>
    </g>
    <g text-rendering="geometricPrecision" stroke-miterlimit="1.45" shape-rendering="geometricPrecision" font-family="sans-serif" transform="matrix(1,0,0,1,-41,148)" stroke-linecap="butt">
      <text x="94.8262" xml:space="preserve" y="24.2139" clip-path="url(#clipPath2)" stroke="none">18</text>
      <circle fill="none" r="6.25" clip-path="url(#clipPath2)" cx="101.5" cy="19.5"/>
    </g>
    <g fill="rgb(255,204,0)" text-rendering="geometricPrecision" shape-rendering="geometricPrecision" transform="matrix(1,0,0,1,-41,148)" stroke="rgb(255,204,0)">
      <ellipse rx="6" ry="6.25" clip-path="url(#clipPath2)" cx="101.75" cy="-28.5" stroke="none"/>
    </g>
    <g text-rendering="geometricPrecision" stroke-miterlimit="1.45" shape-rendering="geometricPrecision" font-family="sans-serif" transform="matrix(1,0,0,1,-41,148)" stroke-linecap="butt">
      <text x="95.0762" xml:space="preserve" y="-23.7861" clip-path="url(#clipPath2)" stroke="none">19</text>
      <ellipse rx="6" fill="none" ry="6.25" clip-path="url(#clipPath2)" cx="101.75" cy="-28.5"/>
    </g>
    <g fill="rgb(255,204,0)" text-rendering="geometricPrecision" shape-rendering="geometricPrecision" transform="matrix(1,0,0,1,-41,148)" stroke="rgb(255,204,0)">
      <circle r="6.25" clip-path="url(#clipPath2)" cx="126.3056" cy="-81.3333" stroke="none"/>
    </g>
    <g text-rendering="geometricPrecision" stroke-miterlimit="1.45" shape-rendering="geometricPrecision" font-family="sans-serif" transform="matrix(1,0,0,1,-41,148)" stroke-linecap="butt">
      <text x="119.6317" xml:space="preserve" y="-76.6195" clip-path="url(#clipPath2)" stroke="none">20</text>
      <circle fill="none" r="6.25" clip-path="url(#clipPath2)" cx="126.3056" cy="-81.3333"/>
      <path fill="none" d="M255.4343 -45.8428 L262.1768 -7.1572" clip-path="url(#clipPath2)"/>
      <path fill="none" d="M259.472 3.9788 L234.7781 36.5212" clip-path="url(#clipPath2)"/>
      <path fill="none" d="M226.2448 37.4441 L210.2552 23.8059" clip-path="url(#clipPath2)"/>
      <path fill="none" d="M207.254 13.7512 L216.246 -17.0012" clip-path="url(#clipPath2)"/>
      <path fill="none" d="M222.8862 -26.8971 L249.4749 -48.1029" clip-path="url(#clipPath2)"/>
      <path fill="none" d="M269.3786 0.2257 L299.6214 6.2743" clip-path="url(#clipPath2)"/>
      <path fill="none" d="M225.7605 44.9074 L193.7395 65.7315" clip-path="url(#clipPath2)"/>
      <path fill="none" d="M199.25 19.75 L159.75 19.75" clip-path="url(#clipPath2)"/>
      <path fill="none" d="M213.1328 -26.9208 L186.8672 -48.0792" clip-path="url(#clipPath2)"/>
      <path fill="none" d="M250.8217 -57.1512 L234.5394 -80.8488" clip-path="url(#clipPath2)"/>
      <path fill="none" d="M234.712 -91.0283 L254.7047 -118.1106" clip-path="url(#clipPath2)"/>
      <path fill="none" d="M260.5457 -117.2627 L303.6209 1.6238" clip-path="url(#clipPath2)"/>
      <path fill="none" d="M300.9824 11.5413 L193.2676 102.8475" clip-path="url(#clipPath2)"/>
      <path fill="none" d="M188.5 100.6389 L188.5 75.3889" clip-path="url(#clipPath2)"/>
      <path fill="none" d="M182.6522 66.9331 L146.8478 53.428" clip-path="url(#clipPath2)"/>
      <path fill="none" d="M143.307 45.4136 L151.193 25.5586" clip-path="url(#clipPath2)"/>
      <path fill="none" d="M152.1442 13.6488 L145.3558 -16.8988" clip-path="url(#clipPath2)"/>
      <path fill="none" d="M148.9684 -26.7917 L177.0316 -48.2083" clip-path="url(#clipPath2)"/>
      <path fill="none" d="M182 -58.25 L182 -80.75" clip-path="url(#clipPath2)"/>
      <path fill="none" d="M188.2487 -86.8725 L224.7513 -86.1275" clip-path="url(#clipPath2)"/>
      <path fill="none" d="M252.1823 -122.6968 L96.9843 -111.6921" clip-path="url(#clipPath2)"/>
      <path fill="none" d="M182.9754 103.9664 L70.4135 44.4225" clip-path="url(#clipPath2)"/>
      <path fill="none" d="M65.9322 35.3377 L89.7067 -105.0877" clip-path="url(#clipPath2)"/>
      <path fill="none" d="M136.1269 47.3087 L106.3731 23.4135" clip-path="url(#clipPath2)"/>
      <path fill="none" d="M96.1428 22.7192 L70.2461 38.2808" clip-path="url(#clipPath2)"/>
      <path fill="none" d="M137.8023 -23.8068 L107.7037 -27.725" clip-path="url(#clipPath2)"/>
      <path fill="none" d="M101.7174 -22.2501 L101.5326 13.2501" clip-path="url(#clipPath2)"/>
      <path fill="none" d="M95.5323 -107.2261 L121.5232 -85.3572" clip-path="url(#clipPath2)"/>
      <path fill="none" d="M175.7821 -86.3674 L132.5235 -81.966" clip-path="url(#clipPath2)"/>
      <path fill="none" d="M123.6713 -75.6656 L104.3645 -34.1254" clip-path="url(#clipPath2)"/>
    </g>
  </g>
</svg>
